<?xml version="1.0" encoding="utf-8"?>
<!-- Generator: Adobe Illustrator 17.0.0, SVG Export Plug-In . SVG Version: 6.00 Build 0)  -->
<!DOCTYPE svg PUBLIC "-//W3C//DTD SVG 1.1//EN" "http://www.w3.org/Graphics/SVG/1.1/DTD/svg11.dtd">
<svg version="1.1" id="Layer_1" xmlns="http://www.w3.org/2000/svg" xmlns:xlink="http://www.w3.org/1999/xlink" x="0px" y="0px"
	 width="640px" height="160px" viewBox="0 0 640 160" enable-background="new 0 0 640 160" xml:space="preserve">
<path fill="#FFF" d="M132.939,81.107c-0.556-6.099-2.042-12.312-4.408-18.35c-2.326-5.938-5.538-11.796-9.64-17.324
	c-2.752-3.707-5.756-7.068-8.939-10.065c-3.208-3.019-6.622-5.691-10.166-7.983c-3.596-2.326-7.35-4.278-11.18-5.812
	c-3.913-1.568-7.926-2.709-11.953-3.367c-2.016-0.33-4.039-0.54-6.057-0.623c-2.047-0.084-4.091-0.036-6.121,0.152
	c-2.061,0.191-4.108,0.524-6.127,1.013c-2.053,0.496-4.08,1.153-6.067,1.978c-0.89,0.37-1.754,0.776-2.602,1.203
	C36.782,27.876,8.779,45.707,10.12,88.121c0.292,9.24-0.592,9.192-3.107,19.125c-1.782,6.58-1.172,12.062,1.496,16.395
	c3.082,4.048,7.978,6.59,14.758,7.296c10.172,1.228,10.446,0.386,18.962,3.984c23.284,9.837,42.167,6.809,55.797,0.668l-0.034,0.028
	c0,0,0.05-0.027,0.123-0.067c1.191-0.539,2.355-1.093,3.465-1.673c4.844-2.086,12.543-4.307,9.52,4.38
	c-3.826,12.165,0.576,16.063,5.54,16.063c3.827,0,8.496-2.915,4.9-13.092c-4.719-12.041-4.497-16.021,3.853-27.804
	c0.239-0.352,0.511-0.685,0.739-1.043c0.018-0.026,0.034-0.048,0.053-0.074l-0.02,0.017c2.505-3.957,4.312-8.284,5.458-12.812
	C133.106,93.649,133.513,87.398,132.939,81.107z M99.451,36.384c0.273-0.417,0.579-0.733,0.913-0.965
	c0.331-0.23,0.69-0.376,1.065-0.454c0.374-0.076,0.767-0.083,1.168-0.035c0.638,0.076,1.3,0.29,1.951,0.587
	c0.65,0.294,1.29,0.671,1.889,1.071c0.597,0.399,1.152,0.823,1.631,1.217c0.479,0.393,0.882,0.755,1.178,1.029
	c1.268,1.234,2.494,2.523,3.67,3.86c1.175,1.335,2.303,2.721,3.379,4.15c1.076,1.43,2.1,2.907,3.068,4.426
	c0.969,1.521,1.883,3.086,2.735,4.69l0.023,0.044l0.031,0.058l0.037,0.07l0.043,0.082c0.225,0.438,0.654,1.317,1.064,2.387
	c0.411,1.073,0.803,2.342,0.949,3.558c0.146,1.223,0.045,2.396-0.539,3.267c-0.589,0.879-1.672,1.453-3.494,1.46
	c-1.096,0.004-2.147,0.013-3.156,0.024c-1.016,0.012-1.989,0.025-2.919,0.038c-0.938,0.013-1.832,0.025-2.686,0.033
	c-0.86,0.008-1.678,0.011-2.458,0.007c-1.725-0.01-3.256-0.057-4.626-0.178c-1.382-0.121-2.594-0.317-3.67-0.623
	c-1.083-0.307-2.025-0.725-2.862-1.289c-0.84-0.566-1.571-1.277-2.232-2.168c-0.963-1.297-1.517-2.625-1.732-4.126
	c-0.214-1.492-0.092-3.146,0.291-5.094c0.378-1.924,1.007-4.122,1.811-6.718c0.787-2.545,1.736-5.453,2.77-8.832
	C98.938,37.322,99.177,36.802,99.451,36.384z M37.263,77.385c0.155-1.745,0.743-3.407,2.085-4.642
	c1.325-1.219,3.378-2.014,6.454-2.058c1.804-0.025,3.504-0.057,5.105-0.088c1.587-0.032,3.08-0.065,4.487-0.097
	c1.395-0.031,2.705-0.059,3.939-0.082c1.223-0.022,2.372-0.038,3.451-0.045c2.341-0.013,4.362,0.02,6.122,0.138
	c1.741,0.118,3.233,0.319,4.527,0.643c1.286,0.323,2.38,0.768,3.333,1.374c0.95,0.605,1.762,1.372,2.483,2.342
	c1.049,1.412,1.63,2.888,1.82,4.602c0.192,1.725-0.012,3.703-0.54,6.118c-0.536,2.451-1.413,5.374-2.565,8.973
	c-1.18,3.686-2.661,8.118-4.384,13.544c-0.337,1.06-0.73,1.963-1.166,2.728c-0.439,0.77-0.925,1.4-1.443,1.907
	c-0.521,0.51-1.076,0.896-1.655,1.178c-0.582,0.287-1.185,0.463-1.8,0.553c-0.986,0.143-1.998,0.062-2.992-0.162
	c-0.998-0.226-1.976-0.595-2.885-1.027c-0.913-0.434-1.754-0.93-2.481-1.405c-0.727-0.477-1.337-0.932-1.781-1.283
	c-1.904-1.613-3.732-3.344-5.472-5.183c-1.744-1.843-3.393-3.79-4.938-5.833c-1.545-2.042-2.981-4.173-4.296-6.383
	c-1.313-2.206-2.503-4.484-3.556-6.824l-0.039-0.091l-0.039-0.092l-0.039-0.091l-0.039-0.091c-0.273-0.636-0.775-1.913-1.172-3.475
	C37.393,80.978,37.107,79.143,37.263,77.385z M114.78,115.553c-0.647,1.256-1.565,2.266-2.436,3.027
	c-0.879,0.769-1.707,1.28-2.148,1.531c-0.763,0.409-1.548,0.793-2.354,1.149c-0.811,0.359-1.643,0.691-2.496,0.995
	c-0.858,0.305-1.738,0.582-2.639,0.828c-0.908,0.248-1.835,0.465-2.783,0.648c-0.955,0.185-1.917,0.335-2.886,0.45
	c-0.975,0.116-1.956,0.195-2.943,0.24c-0.992,0.045-1.99,0.054-2.99,0.029c-1.007-0.025-2.016-0.086-3.028-0.182
	c-0.6-0.069-1.752-0.243-3.103-0.656c-1.36-0.417-2.92-1.075-4.31-2.111c-1.396-1.039-2.612-2.453-3.267-4.361
	c-0.652-1.898-0.74-4.267,0.099-7.192c1.565-5.455,2.789-9.974,3.847-13.692c1.033-3.632,1.915-6.53,2.797-8.785
	c0.868-2.219,1.741-3.826,2.763-4.894c1.009-1.054,2.164-1.583,3.602-1.643c1.422-0.06,2.75,0.355,4.14,1.278
	c1.384,0.919,2.833,2.344,4.501,4.313c1.666,1.966,3.553,4.477,5.81,7.571c2.257,3.094,4.886,6.772,8.03,11.062
	c1.643,2.244,2.409,4.217,2.608,5.936C115.794,112.825,115.42,114.31,114.78,115.553z M62.13,23.905
	c0.864-0.734,1.978-1.197,2.992-1.49c1.005-0.29,1.916-0.411,2.396-0.459c0.816-0.067,1.641-0.109,2.474-0.127
	c0.828-0.018,1.664-0.011,2.507,0.021c0.839,0.032,1.685,0.087,2.537,0.168c0.848,0.081,1.703,0.185,2.566,0.315
	c0.857,0.129,1.709,0.281,2.555,0.456c0.842,0.173,1.678,0.369,2.508,0.585c0.825,0.215,1.647,0.45,2.46,0.707
	c0.81,0.254,1.614,0.529,2.412,0.822c0.468,0.18,1.361,0.547,2.399,1.101c1.033,0.552,2.207,1.287,3.252,2.207
	c1.042,0.918,1.961,2.024,2.488,3.327c0.53,1.307,0.672,2.824,0.15,4.573c-1.017,3.413-1.852,6.413-2.61,8.991
	c-0.774,2.63-1.465,4.806-2.193,6.533c-0.737,1.752-1.508,3.036-2.436,3.87c-0.94,0.841-2.038,1.222-3.426,1.167
	c-1.402-0.056-2.723-0.54-4.108-1.501c-1.391-0.965-2.842-2.408-4.501-4.371c-1.662-1.967-3.529-4.453-5.755-7.503
	c-2.226-3.05-4.807-6.662-7.903-10.889c-1.619-2.209-2.25-3.969-2.252-5.363C60.641,25.66,61.257,24.646,62.13,23.905z
	 M60.026,33.812c3.197,4.253,5.957,7.834,8.265,10.89c2.307,3.055,4.165,5.589,5.564,7.754c1.401,2.167,2.347,3.968,2.825,5.558
	c0.481,1.599,0.495,2.99,0.025,4.336c-0.325,0.931-0.822,1.672-1.521,2.258c-0.704,0.591-1.615,1.026-2.763,1.342
	c-1.159,0.319-2.562,0.518-4.247,0.633c-1.702,0.116-3.698,0.148-6.027,0.135c-1.074-0.007-2.221-0.022-3.445-0.044
	c-1.232-0.022-2.544-0.05-3.94-0.081c-1.408-0.031-2.902-0.064-4.488-0.096c-1.602-0.033-3.298-0.063-5.098-0.088
	c-3.065-0.043-5.317-0.824-6.948-2.012c-1.639-1.194-2.634-2.785-3.218-4.436c-0.581-1.644-0.751-3.339-0.749-4.76
	c0.002-1.412,0.173-2.554,0.277-3.12l0.015-0.08l0.015-0.081l0.015-0.081l0.015-0.08c0.431-2.055,0.996-4.027,1.684-5.908
	c0.679-1.857,1.478-3.625,2.385-5.295c0.895-1.649,1.896-3.202,2.992-4.654c1.082-1.433,2.255-2.766,3.512-3.996
	c0.298-0.266,0.712-0.611,1.221-0.97c0.507-0.358,1.109-0.729,1.785-1.052c0.672-0.322,1.418-0.597,2.218-0.763
	c0.795-0.166,1.645-0.226,2.532-0.12c0.554,0.067,1.122,0.196,1.702,0.407c0.578,0.209,1.167,0.497,1.762,0.879
	c0.594,0.381,1.197,0.855,1.804,1.437C58.803,32.308,59.414,32.998,60.026,33.812z M129.504,86.932
	c-0.082,1.732-0.252,3.435-0.509,5.102c-0.26,1.686-0.608,3.337-1.046,4.944c-0.442,1.627-0.973,3.211-1.592,4.744
	c-0.153,0.342-0.372,0.795-0.655,1.288c-0.285,0.495-0.636,1.03-1.05,1.536c-0.418,0.509-0.9,0.988-1.446,1.365
	c-0.547,0.381-1.16,0.657-1.835,0.755c-0.425,0.062-0.874,0.052-1.347-0.046c-0.474-0.098-0.972-0.286-1.491-0.581
	c-0.52-0.297-1.063-0.701-1.626-1.231c-0.564-0.531-1.147-1.189-1.75-1.99c-3.149-4.187-5.859-7.705-8.133-10.718
	c-2.276-3.014-4.114-5.521-5.515-7.681c-1.4-2.157-2.361-3.963-2.882-5.574c-0.519-1.604-0.601-3.009-0.25-4.367
	c0.24-0.925,0.638-1.659,1.214-2.24c0.571-0.577,1.318-1.003,2.259-1.316c0.933-0.311,2.057-0.509,3.386-0.632
	c1.316-0.122,2.831-0.17,4.559-0.18c0.782-0.004,1.607-0.001,2.475,0.007c0.864,0.008,1.77,0.02,2.719,0.033
	c0.943,0.013,1.929,0.027,2.958,0.039c1.022,0.012,2.085,0.021,3.191,0.025c1.836,0.007,3.254,0.589,4.355,1.485
	c1.098,0.893,1.891,2.106,2.465,3.379c0.577,1.278,0.937,2.624,1.161,3.772c0.226,1.154,0.315,2.108,0.348,2.584l0.006,0.088
	l0.004,0.075l0.003,0.062l0.002,0.047C129.579,83.474,129.585,85.218,129.504,86.932z"/>
<g>
	<path fill="#FFF" d="M163.765,67.692v-8.343c0-0.973,0.432-1.85,1.296-2.633c0.863-0.782,2.051-1.175,3.564-1.175
		c1.403,0,2.523,0.393,3.361,1.175c0.836,0.783,1.255,1.66,1.255,2.633v8.343h5.994c0.917,0,1.728,0.338,2.43,1.013
		c0.701,0.676,1.053,1.553,1.053,2.632c0,1.188-0.352,2.12-1.053,2.795c-0.703,0.676-1.513,1.013-2.43,1.013h-5.994v19.601
		c0,2.269,0.296,3.808,0.891,4.617c0.594,0.811,1.458,1.215,2.592,1.215c1.08,0,1.997-0.094,2.754-0.283
		c0.755-0.188,1.62-0.283,2.592-0.283c1.242,0,2.146,0.338,2.713,1.012c0.567,0.677,0.851,1.607,0.851,2.795
		c0,1.026-0.271,1.863-0.81,2.511c-0.54,0.648-1.255,1.175-2.146,1.58c-0.891,0.404-1.917,0.688-3.078,0.851
		c-1.162,0.161-2.39,0.242-3.686,0.242c-4.212,0-7.29-1.093-9.234-3.28c-1.944-2.187-2.916-5.953-2.916-11.299V75.144h-3.24
		c-0.919,0-1.729-0.337-2.43-1.013c-0.702-0.675-1.053-1.606-1.053-2.795c0-1.079,0.351-1.956,1.053-2.632
		c0.701-0.675,1.511-1.013,2.43-1.013H163.765z"/>
	<path fill="#FFF" d="M227.276,105.194c0,0.972-0.459,1.851-1.377,2.633c-0.919,0.782-2.08,1.174-3.483,1.174
		c-1.405,0-2.539-0.392-3.402-1.174c-0.865-0.782-1.296-1.661-1.296-2.633V84.297c0-2.593-0.716-4.684-2.146-6.278
		c-1.431-1.592-3.523-2.389-6.277-2.389c-2.377,0-4.361,0.661-5.954,1.984c-1.593,1.323-2.444,3.416-2.551,6.277v21.303
		c0,0.972-0.419,1.851-1.256,2.633c-0.837,0.782-1.958,1.174-3.361,1.174c-1.458,0-2.632-0.392-3.523-1.174
		s-1.336-1.661-1.336-2.633V56.918c0-0.972,0.445-1.849,1.336-2.632c0.891-0.782,2.065-1.175,3.523-1.175
		c1.404,0,2.524,0.393,3.361,1.175c0.837,0.783,1.256,1.66,1.256,2.632v15.147l0.486,0.081c0.972-1.565,2.294-2.848,3.969-3.848
		c1.673-0.998,3.698-1.498,6.075-1.498c2.969,0,5.468,0.473,7.493,1.417c2.025,0.945,3.658,2.215,4.9,3.808
		c1.242,1.593,2.146,3.442,2.713,5.548c0.567,2.106,0.851,4.321,0.851,6.642V105.194z"/>
	<path fill="#FFF" d="M268.691,83.324c0,2.539-0.486,4.321-1.458,5.346c-0.972,1.027-2.592,1.539-4.86,1.539h-19.197v2.106
		c0,2.592,0.796,4.672,2.39,6.237c1.592,1.566,3.847,2.349,6.763,2.349c1.458,0,2.795-0.094,4.01-0.283
		c1.215-0.188,2.173-0.445,2.875-0.77c0.755-0.377,1.484-0.756,2.187-1.134c0.701-0.378,1.349-0.567,1.944-0.567
		c1.08,0,1.916,0.324,2.511,0.972c0.593,0.648,0.917,1.486,0.972,2.512c0,0.864-0.378,1.729-1.134,2.592
		c-0.757,0.864-1.782,1.647-3.078,2.349c-1.296,0.702-2.822,1.283-4.576,1.741c-1.756,0.459-3.633,0.688-5.63,0.688
		c-2.754,0-5.265-0.433-7.533-1.296s-4.226-2.024-5.873-3.482c-1.648-1.458-2.93-3.172-3.848-5.144
		c-0.919-1.971-1.377-4.062-1.377-6.277v-8.586c0-2.376,0.445-4.617,1.336-6.723c0.891-2.105,2.119-3.941,3.686-5.508
		c1.565-1.565,3.429-2.807,5.589-3.726c2.159-0.918,4.536-1.377,7.128-1.377c3.078,0,5.696,0.499,7.857,1.498
		c2.159,1,3.928,2.296,5.305,3.888c1.377,1.594,2.39,3.362,3.038,5.306C268.367,79.518,268.691,81.435,268.691,83.324z
		 M251.438,74.739c-2.43,0-4.361,0.77-5.792,2.309c-1.432,1.539-2.255,3.578-2.471,6.115H259.7v-1.215
		c0-2.213-0.77-3.968-2.309-5.264C255.853,75.387,253.868,74.739,251.438,74.739z"/>
	<path fill="#FFF" d="M311.134,66.801c2.213,0,4.171,0.445,5.873,1.336c1.701,0.892,3.091,1.958,4.171,3.199l0.566-0.08V56.433
		c0-0.973,0.418-1.85,1.256-2.633c0.837-0.782,1.93-1.175,3.28-1.175c1.512,0,2.7,0.393,3.564,1.175
		c0.863,0.783,1.296,1.66,1.296,2.633v34.911c0,2.538-0.379,4.888-1.134,7.047c-0.757,2.16-1.877,4.023-3.361,5.589
		c-1.486,1.566-3.35,2.794-5.59,3.686c-2.241,0.891-4.847,1.336-7.816,1.336c-3.187,0-5.954-0.485-8.302-1.458
		c-2.349-0.972-4.307-2.294-5.873-3.969c-1.567-1.673-2.742-3.631-3.523-5.872c-0.784-2.24-1.175-4.63-1.175-7.169v-5.265
		c0-2.538,0.324-4.926,0.972-7.168c0.648-2.24,1.646-4.198,2.997-5.872c1.349-1.673,3.078-2.997,5.184-3.969
		C305.626,67.287,308.164,66.801,311.134,66.801z M313.24,100.173c2.375,0,4.387-0.675,6.035-2.025c1.646-1.35,2.47-3.51,2.47-6.48
		v-7.775c-0.108-2.861-0.985-4.954-2.632-6.277c-1.648-1.323-3.604-1.984-5.873-1.984c-2.809,0-5.062,0.837-6.764,2.511
		c-1.701,1.674-2.551,3.942-2.551,6.803v5.913c0,2.863,0.851,5.131,2.551,6.804C308.177,99.336,310.431,100.173,313.24,100.173z"/>
	<path fill="#FFF" d="M369.201,109.406c-1.351,0-2.444-0.393-3.28-1.175c-0.838-0.781-1.256-1.66-1.256-2.632v-1.296
		l-0.729-0.243c-0.485,0.702-1.012,1.351-1.579,1.944c-0.567,0.595-1.256,1.121-2.065,1.579c-0.811,0.459-1.77,0.81-2.876,1.053
		c-1.107,0.243-2.47,0.364-4.09,0.364c-2.592,0-4.86-0.473-6.805-1.417c-1.943-0.944-3.537-2.173-4.778-3.686
		c-1.243-1.511-2.175-3.24-2.795-5.184c-0.621-1.944-0.932-3.941-0.932-5.994v-7.128c0-2.269,0.405-4.509,1.215-6.723
		c0.811-2.213,1.998-4.212,3.564-5.994c1.565-1.781,3.536-3.226,5.913-4.333c2.376-1.106,5.156-1.66,8.343-1.66
		c2.97,0,5.535,0.404,7.695,1.215c2.159,0.81,3.929,1.931,5.306,3.361c1.377,1.432,2.39,3.118,3.037,5.062
		c0.648,1.944,0.972,4.078,0.972,6.398V105.6c0,0.972-0.433,1.851-1.296,2.632C371.9,109.014,370.712,109.406,369.201,109.406z
		 M364.665,83.081c0-2.699-0.662-4.602-1.984-5.709c-1.324-1.106-3.2-1.661-5.63-1.661c-1.404,0-2.673,0.258-3.807,0.77
		c-1.134,0.515-2.106,1.216-2.916,2.106c-0.811,0.891-1.445,1.903-1.903,3.037c-0.46,1.135-0.688,2.35-0.688,3.646v7.775
		c0,1.944,0.729,3.619,2.187,5.022c1.458,1.405,3.267,2.106,5.427,2.106c1.188,0,2.335-0.203,3.442-0.608
		c1.106-0.404,2.093-0.998,2.957-1.781c0.863-0.782,1.565-1.769,2.105-2.957c0.54-1.187,0.811-2.563,0.811-4.131V83.081z"/>
	<path fill="#FFF" d="M382.476,56.159c0-0.965,0.445-1.834,1.337-2.611c0.891-0.776,2.065-1.164,3.523-1.164
		c1.403,0,2.523,0.388,3.361,1.164c0.837,0.777,1.256,1.646,1.256,2.611v1.926c0,0.965-0.419,1.835-1.256,2.611
		c-0.838,0.776-1.958,1.164-3.361,1.164c-1.458,0-2.633-0.388-3.523-1.164c-0.892-0.776-1.337-1.646-1.337-2.611V56.159z
		 M382.476,70.689c0-0.972,0.445-1.85,1.337-2.633c0.891-0.782,2.065-1.174,3.523-1.174c1.403,0,2.523,0.392,3.361,1.174
		c0.837,0.783,1.256,1.661,1.256,2.633v34.505c0,0.972-0.419,1.851-1.256,2.633c-0.838,0.782-1.958,1.174-3.361,1.174
		c-1.458,0-2.633-0.392-3.523-1.174c-0.892-0.782-1.337-1.661-1.337-2.633V70.689z"/>
	<path fill="#FFF" d="M400.749,56.918c0-0.972,0.445-1.849,1.336-2.632c0.892-0.782,2.065-1.175,3.523-1.175
		c1.404,0,2.524,0.393,3.362,1.175c0.836,0.783,1.255,1.66,1.255,2.632v48.276c0,0.972-0.419,1.851-1.255,2.633
		c-0.838,0.782-1.958,1.174-3.362,1.174c-1.458,0-2.632-0.392-3.523-1.174c-0.891-0.782-1.336-1.661-1.336-2.633V56.918z"/>
	<path fill="#FFF" d="M445.258,67.935c0.891-0.756,2.065-1.134,3.523-1.134c1.403,0,2.538,0.392,3.402,1.174
		c0.863,0.784,1.296,1.661,1.296,2.633v40.418c-0.055,2.592-0.526,4.846-1.418,6.764c-0.891,1.916-2.105,3.482-3.645,4.698
		c-1.539,1.215-3.349,2.118-5.427,2.713c-2.08,0.594-4.28,0.892-6.602,0.892c-2.646,0-4.753-0.109-6.318-0.324
		c-1.566-0.217-2.728-0.46-3.483-0.729c-1.781-1.134-2.673-2.511-2.673-4.131c0-1.188,0.377-2.134,1.134-2.835
		c0.756-0.702,1.89-1.053,3.402-1.053c0.594,0,1.593,0.107,2.997,0.324c1.403,0.215,3.05,0.323,4.941,0.323
		c2.537,0,4.44-0.58,5.71-1.741c1.269-1.162,1.903-2.794,1.903-4.9v-6.156l-0.404-0.162c-1.188,1.405-2.552,2.458-4.091,3.159
		s-3.471,1.053-5.792,1.053c-2.97,0-5.427-0.418-7.37-1.255c-1.944-0.837-3.483-2.011-4.617-3.523
		c-1.134-1.512-1.932-3.308-2.39-5.387c-0.46-2.078-0.688-4.36-0.688-6.845V70.608c0-0.972,0.458-1.849,1.377-2.633
		c0.918-0.782,2.078-1.174,3.483-1.174c1.403,0,2.537,0.392,3.401,1.174c0.863,0.784,1.296,1.661,1.296,2.633v21.626
		c0,2.539,0.567,4.482,1.701,5.832c1.134,1.351,3.104,2.025,5.913,2.025c1.944,0,3.657-0.473,5.144-1.418
		c1.484-0.944,2.497-2.416,3.037-4.414V70.284C443.948,69.474,444.367,68.692,445.258,67.935z"/>
	<path fill="#FFF" d="M475.348,115.806c0.919,0,1.754,0.107,2.511,0.324c0.756,0.215,1.673,0.323,2.754,0.323
		c1.89,0,3.212-0.445,3.969-1.336c0.756-0.892,1.135-2.39,1.135-4.496V70.689c0-0.972,0.417-1.85,1.255-2.633
		c0.837-0.782,1.957-1.174,3.361-1.174c1.512,0,2.7,0.392,3.564,1.174c0.863,0.783,1.296,1.661,1.296,2.633v39.609
		c0,5.346-1.243,9.112-3.726,11.299c-2.484,2.188-6.104,3.28-10.854,3.28c-1.134,0-2.241-0.08-3.321-0.242
		c-1.079-0.162-2.037-0.446-2.875-0.851c-0.837-0.405-1.498-0.932-1.984-1.58c-0.486-0.647-0.729-1.485-0.729-2.511
		c0-1.188,0.298-2.134,0.892-2.835C473.188,116.156,474.105,115.806,475.348,115.806z M485.635,56.159
		c0-0.965,0.432-1.834,1.296-2.611c0.863-0.776,2.052-1.164,3.563-1.164c1.404,0,2.524,0.388,3.362,1.164
		c0.836,0.777,1.255,1.646,1.255,2.611v1.926c0,0.965-0.419,1.835-1.255,2.611c-0.838,0.776-1.958,1.164-3.362,1.164
		c-1.512,0-2.7-0.388-3.563-1.164c-0.864-0.776-1.296-1.646-1.296-2.611V56.159z"/>
	<path fill="#FFF" d="M521.34,109.001c-2.971,0-5.577-0.445-7.816-1.336c-2.242-0.892-4.119-2.133-5.63-3.727
		c-1.513-1.592-2.646-3.482-3.402-5.67c-0.757-2.187-1.134-4.548-1.134-7.087V70.77c0-0.972,0.445-1.85,1.337-2.633
		c0.891-0.782,2.065-1.174,3.523-1.174c1.403,0,2.523,0.392,3.361,1.174c0.837,0.783,1.256,1.661,1.256,2.633v20.736
		c0,2.97,0.81,5.157,2.43,6.561c1.62,1.405,3.645,2.106,6.075,2.106c2.43,0,4.44-0.701,6.034-2.106
		c1.592-1.403,2.39-3.591,2.39-6.561V70.77c0-0.972,0.432-1.85,1.296-2.633c0.863-0.782,1.997-1.174,3.402-1.174
		c1.403,0,2.563,0.392,3.482,1.174c0.918,0.783,1.377,1.661,1.377,2.633v20.412c0,2.539-0.378,4.9-1.134,7.087
		c-0.757,2.188-1.891,4.078-3.402,5.67c-1.512,1.594-3.389,2.835-5.629,3.727C526.915,108.556,524.309,109.001,521.34,109.001z"/>
	<path fill="#FFF" d="M547.486,56.159c0-0.965,0.445-1.834,1.336-2.611c0.891-0.776,2.065-1.164,3.523-1.164
		c1.403,0,2.523,0.388,3.361,1.164c0.837,0.777,1.256,1.646,1.256,2.611v1.926c0,0.965-0.419,1.835-1.256,2.611
		c-0.838,0.776-1.958,1.164-3.361,1.164c-1.458,0-2.633-0.388-3.523-1.164s-1.336-1.646-1.336-2.611V56.159z M547.486,70.689
		c0-0.972,0.445-1.85,1.336-2.633c0.891-0.782,2.065-1.174,3.523-1.174c1.403,0,2.523,0.392,3.361,1.174
		c0.837,0.783,1.256,1.661,1.256,2.633v34.505c0,0.972-0.419,1.851-1.256,2.633c-0.838,0.782-1.958,1.174-3.361,1.174
		c-1.458,0-2.633-0.392-3.523-1.174s-1.336-1.661-1.336-2.633V70.689z"/>
	<path fill="#FFF" d="M564.204,84.539c0-2.43,0.337-4.709,1.013-6.843c0.674-2.133,1.741-4.01,3.199-5.63
		s3.321-2.888,5.589-3.807c2.269-0.918,4.994-1.377,8.181-1.377c2.755,0,5.13,0.364,7.129,1.093
		c1.997,0.729,3.617,1.715,4.859,2.957c0.701,0.702,1.08,1.579,1.134,2.632c0.054,1.054-0.176,1.985-0.688,2.795
		c-0.514,0.81-1.296,1.377-2.349,1.701s-2.336,0.108-3.848-0.648c-0.81-0.432-1.701-0.822-2.673-1.174
		c-0.972-0.351-2.16-0.527-3.564-0.527c-2.808,0-4.914,0.838-6.317,2.512c-1.405,1.674-2.106,3.942-2.106,6.803v5.832
		c0,2.863,0.701,5.131,2.106,6.804c1.403,1.675,3.51,2.512,6.317,2.512c1.404,0,2.674-0.148,3.808-0.446
		c1.134-0.296,2.024-0.634,2.673-1.012c1.134-0.594,2.199-0.797,3.199-0.608c0.999,0.19,1.795,0.622,2.39,1.297
		c0.594,0.676,0.944,1.485,1.053,2.43c0.108,0.945-0.189,1.903-0.891,2.875c-1.026,1.405-2.66,2.471-4.9,3.2
		c-2.241,0.729-4.686,1.093-7.331,1.093c-3.187,0-5.912-0.459-8.181-1.377c-2.268-0.917-4.131-2.187-5.589-3.807
		s-2.525-3.496-3.199-5.63c-0.676-2.132-1.013-4.414-1.013-6.844V84.539z"/>
	<path fill="#FFF" d="M633.912,83.324c0,2.539-0.486,4.321-1.458,5.346c-0.972,1.027-2.592,1.539-4.86,1.539h-19.196v2.106
		c0,2.592,0.796,4.672,2.389,6.237c1.593,1.566,3.848,2.349,6.764,2.349c1.458,0,2.795-0.094,4.01-0.283
		c1.215-0.188,2.173-0.445,2.875-0.77c0.756-0.377,1.485-0.756,2.188-1.134c0.701-0.378,1.349-0.567,1.944-0.567
		c1.079,0,1.916,0.324,2.511,0.972c0.594,0.648,0.917,1.486,0.972,2.512c0,0.864-0.378,1.729-1.134,2.592
		c-0.757,0.864-1.782,1.647-3.078,2.349c-1.296,0.702-2.822,1.283-4.576,1.741c-1.756,0.459-3.633,0.688-5.63,0.688
		c-2.754,0-5.265-0.433-7.533-1.296c-2.268-0.863-4.226-2.024-5.872-3.482c-1.647-1.458-2.93-3.172-3.848-5.144
		c-0.919-1.971-1.377-4.062-1.377-6.277v-8.586c0-2.376,0.445-4.617,1.337-6.723c0.891-2.105,2.118-3.941,3.686-5.508
		c1.565-1.565,3.428-2.807,5.589-3.726c2.159-0.918,4.536-1.377,7.128-1.377c3.078,0,5.696,0.499,7.856,1.498
		c2.159,1,3.929,2.296,5.306,3.888c1.377,1.594,2.39,3.362,3.038,5.306C633.588,79.518,633.912,81.435,633.912,83.324z
		 M616.659,74.739c-2.43,0-4.361,0.77-5.792,2.309s-2.255,3.578-2.47,6.115h16.523v-1.215c0-2.213-0.77-3.968-2.309-5.264
		S619.089,74.739,616.659,74.739z"/>
</g>
</svg>
