<?xml version="1.0" encoding="utf-8"?>
<!-- Generator: Adobe Illustrator 17.0.0, SVG Export Plug-In . SVG Version: 6.00 Build 0)  -->
<!DOCTYPE svg PUBLIC "-//W3C//DTD SVG 1.1//EN" "http://www.w3.org/Graphics/SVG/1.1/DTD/svg11.dtd">
<svg version="1.1" xmlns="http://www.w3.org/2000/svg" xmlns:xlink="http://www.w3.org/1999/xlink" x="0px" y="0px"
	 width="260.504px" height="152.504px" viewBox="0 0 260.504 152.504" enable-background="new 0 0 260.504 152.504"
	 xml:space="preserve">
<g id="Layer_3">
	<path fill="#4FBA6F" d="M158.523,57.491c-0.248-2.722-0.912-5.495-1.967-8.189c-1.038-2.65-2.472-5.265-4.303-7.732
		c-1.228-1.655-2.569-3.154-3.99-4.492c-1.432-1.348-2.956-2.54-4.537-3.563c-1.605-1.038-3.281-1.909-4.99-2.594
		c-1.746-0.7-3.537-1.209-5.335-1.503c-0.9-0.147-1.803-0.241-2.703-0.278c-0.913-0.038-1.826-0.016-2.732,0.068
		c-0.92,0.085-1.833,0.234-2.735,0.452c-0.916,0.221-1.821,0.514-2.708,0.883c-0.397,0.165-0.783,0.346-1.162,0.537
		c-5.755,2.654-18.253,10.612-17.654,29.541c0.13,4.124-0.264,4.103-1.386,8.535c-0.795,2.937-0.523,5.383,0.668,7.317
		c1.375,1.807,3.561,2.941,6.586,3.256c4.54,0.548,4.662,0.172,8.463,1.778c10.391,4.39,18.819,3.039,24.902,0.298l-0.015,0.013
		c0,0,0.022-0.012,0.055-0.03c0.532-0.24,1.051-0.488,1.546-0.746c2.162-0.931,5.598-1.922,4.249,1.955
		c-1.708,5.429,0.257,7.169,2.473,7.169c1.708,0,3.792-1.301,2.187-5.843c-2.106-5.374-2.007-7.15,1.72-12.409
		c0.107-0.157,0.228-0.306,0.33-0.466c0.008-0.011,0.015-0.021,0.023-0.033l-0.009,0.007c1.118-1.766,1.924-3.697,2.436-5.718
		C158.597,63.089,158.779,60.299,158.523,57.491z M143.577,37.531c0.122-0.186,0.258-0.327,0.407-0.431
		c0.148-0.103,0.308-0.168,0.475-0.203c0.167-0.034,0.342-0.037,0.521-0.015c0.285,0.034,0.58,0.129,0.871,0.262
		c0.29,0.131,0.576,0.299,0.843,0.478c0.266,0.178,0.514,0.368,0.728,0.543c0.214,0.175,0.394,0.337,0.526,0.459
		c0.566,0.551,1.113,1.126,1.638,1.723c0.525,0.596,1.028,1.214,1.508,1.852c0.48,0.638,0.937,1.297,1.37,1.975
		c0.433,0.679,0.84,1.377,1.221,2.093l0.01,0.019l0.014,0.026l0.016,0.031l0.019,0.036c0.1,0.196,0.292,0.588,0.475,1.065
		c0.183,0.479,0.358,1.045,0.423,1.588c0.065,0.546,0.02,1.069-0.24,1.458c-0.263,0.392-0.746,0.649-1.559,0.652
		c-0.489,0.002-0.958,0.006-1.408,0.011c-0.454,0.005-0.888,0.011-1.303,0.017c-0.419,0.006-0.818,0.011-1.199,0.015
		c-0.384,0.003-0.749,0.005-1.097,0.003c-0.77-0.004-1.453-0.025-2.064-0.079c-0.617-0.054-1.158-0.142-1.638-0.278
		c-0.483-0.137-0.904-0.324-1.277-0.575c-0.375-0.253-0.701-0.57-0.996-0.967c-0.43-0.579-0.677-1.171-0.773-1.842
		c-0.095-0.666-0.041-1.404,0.13-2.274c0.169-0.858,0.45-1.84,0.808-2.998c0.351-1.136,0.775-2.434,1.236-3.942
		C143.348,37.95,143.455,37.718,143.577,37.531z M115.823,55.829c0.069-0.779,0.331-1.521,0.93-2.072
		c0.591-0.544,1.508-0.899,2.881-0.918c0.805-0.011,1.564-0.025,2.279-0.04c0.708-0.014,1.375-0.029,2.003-0.043
		c0.622-0.014,1.207-0.026,1.758-0.037c0.546-0.01,1.058-0.017,1.54-0.02c1.045-0.006,1.947,0.009,2.732,0.062
		c0.777,0.053,1.443,0.143,2.021,0.287c0.574,0.144,1.062,0.343,1.488,0.613c0.424,0.27,0.786,0.612,1.108,1.045
		c0.468,0.63,0.727,1.289,0.812,2.054c0.086,0.77-0.005,1.653-0.241,2.731c-0.239,1.094-0.631,2.398-1.145,4.005
		c-0.527,1.645-1.188,3.623-1.956,6.045c-0.15,0.473-0.326,0.876-0.52,1.218c-0.196,0.343-0.413,0.625-0.644,0.851
		c-0.233,0.228-0.48,0.4-0.739,0.526c-0.26,0.128-0.529,0.207-0.803,0.247c-0.44,0.064-0.891,0.028-1.335-0.073
		c-0.445-0.101-0.882-0.266-1.288-0.458c-0.407-0.194-0.783-0.415-1.107-0.627c-0.325-0.213-0.597-0.416-0.795-0.573
		c-0.85-0.72-1.666-1.493-2.442-2.313c-0.778-0.823-1.514-1.692-2.204-2.603c-0.69-0.911-1.33-1.862-1.917-2.849
		c-0.586-0.984-1.117-2.001-1.587-3.045l-0.018-0.04l-0.018-0.041l-0.018-0.041l-0.017-0.04c-0.122-0.284-0.346-0.854-0.523-1.551
		C115.881,57.433,115.753,56.614,115.823,55.829z M150.418,72.864c-0.289,0.561-0.698,1.011-1.087,1.351
		c-0.392,0.343-0.762,0.571-0.959,0.683c-0.341,0.183-0.691,0.354-1.051,0.513c-0.362,0.16-0.733,0.309-1.114,0.444
		c-0.383,0.136-0.776,0.26-1.178,0.369c-0.405,0.111-0.819,0.207-1.242,0.289c-0.426,0.083-0.855,0.149-1.288,0.201
		c-0.435,0.052-0.873,0.087-1.313,0.107c-0.443,0.02-0.888,0.024-1.334,0.013c-0.449-0.011-0.9-0.038-1.352-0.081
		c-0.268-0.031-0.782-0.109-1.385-0.293c-0.607-0.186-1.303-0.48-1.924-0.942c-0.623-0.464-1.165-1.095-1.458-1.946
		c-0.291-0.847-0.33-1.904,0.044-3.21c0.698-2.435,1.245-4.451,1.717-6.111c0.461-1.621,0.855-2.914,1.248-3.921
		c0.387-0.99,0.777-1.708,1.233-2.184c0.45-0.471,0.966-0.707,1.607-0.733c0.635-0.027,1.227,0.159,1.848,0.57
		c0.618,0.41,1.264,1.046,2.009,1.925c0.744,0.878,1.585,1.998,2.593,3.379c1.007,1.381,2.181,3.022,3.584,4.937
		c0.733,1.002,1.075,1.882,1.164,2.649C150.871,71.646,150.704,72.309,150.418,72.864z M126.921,31.962
		c0.385-0.328,0.883-0.534,1.335-0.665c0.449-0.129,0.855-0.184,1.069-0.205c0.364-0.03,0.732-0.049,1.104-0.056
		c0.369-0.008,0.743-0.005,1.119,0.009c0.374,0.014,0.752,0.039,1.133,0.075c0.379,0.036,0.76,0.083,1.145,0.141
		c0.383,0.057,0.763,0.126,1.14,0.203c0.376,0.077,0.749,0.164,1.119,0.261c0.368,0.096,0.735,0.201,1.098,0.315
		c0.362,0.113,0.72,0.236,1.076,0.367c0.209,0.08,0.607,0.244,1.071,0.492c0.461,0.246,0.985,0.574,1.451,0.985
		c0.465,0.41,0.875,0.903,1.111,1.485c0.236,0.583,0.3,1.26,0.067,2.041c-0.454,1.523-0.826,2.862-1.165,4.012
		c-0.345,1.174-0.654,2.145-0.979,2.916c-0.329,0.782-0.673,1.355-1.087,1.727c-0.42,0.375-0.91,0.546-1.529,0.521
		c-0.626-0.025-1.215-0.241-1.833-0.67c-0.621-0.431-1.268-1.074-2.009-1.951c-0.742-0.878-1.575-1.987-2.568-3.349
		c-0.993-1.361-2.145-2.973-3.527-4.86c-0.723-0.986-1.004-1.771-1.005-2.393C126.256,32.745,126.531,32.293,126.921,31.962z
		 M125.981,36.383c1.427,1.898,2.659,3.496,3.689,4.86c1.03,1.364,1.859,2.495,2.483,3.461c0.625,0.967,1.047,1.771,1.261,2.48
		c0.215,0.714,0.221,1.334,0.011,1.935c-0.145,0.416-0.367,0.746-0.679,1.008c-0.314,0.264-0.721,0.458-1.233,0.599
		c-0.517,0.143-1.144,0.231-1.895,0.283c-0.76,0.052-1.65,0.066-2.69,0.06c-0.479-0.003-0.991-0.01-1.537-0.02
		c-0.55-0.01-1.135-0.022-1.758-0.036c-0.628-0.014-1.295-0.029-2.003-0.043c-0.715-0.015-1.472-0.028-2.275-0.039
		c-1.368-0.019-2.373-0.368-3.101-0.898c-0.731-0.533-1.176-1.243-1.436-1.98c-0.259-0.734-0.335-1.49-0.334-2.124
		c0.001-0.63,0.077-1.14,0.124-1.392l0.007-0.036l0.007-0.036l0.007-0.036l0.007-0.035c0.192-0.917,0.444-1.797,0.751-2.637
		c0.303-0.829,0.66-1.618,1.064-2.363c0.4-0.736,0.846-1.429,1.335-2.077c0.483-0.639,1.006-1.235,1.568-1.784
		c0.133-0.119,0.318-0.273,0.545-0.433c0.226-0.16,0.495-0.326,0.797-0.47c0.3-0.144,0.633-0.266,0.99-0.341
		c0.355-0.074,0.734-0.101,1.13-0.054c0.247,0.03,0.501,0.088,0.76,0.182c0.258,0.093,0.521,0.222,0.786,0.392
		c0.265,0.17,0.534,0.382,0.805,0.641C125.436,35.712,125.709,36.02,125.981,36.383z M156.99,60.091
		c-0.036,0.773-0.112,1.533-0.227,2.277c-0.116,0.752-0.271,1.489-0.467,2.207c-0.197,0.726-0.434,1.433-0.711,2.117
		c-0.068,0.153-0.166,0.355-0.293,0.575c-0.127,0.221-0.284,0.46-0.469,0.686c-0.186,0.227-0.402,0.441-0.645,0.609
		c-0.244,0.17-0.518,0.293-0.819,0.337c-0.19,0.028-0.39,0.023-0.601-0.02c-0.212-0.044-0.434-0.128-0.665-0.259
		c-0.232-0.132-0.475-0.313-0.726-0.549c-0.251-0.237-0.512-0.531-0.781-0.888c-1.405-1.869-2.615-3.439-3.63-4.783
		c-1.016-1.345-1.836-2.464-2.462-3.428c-0.625-0.963-1.054-1.769-1.286-2.488c-0.232-0.716-0.268-1.343-0.112-1.949
		c0.107-0.413,0.285-0.74,0.542-1c0.255-0.257,0.588-0.448,1.008-0.587c0.417-0.139,0.918-0.227,1.511-0.282
		c0.587-0.055,1.263-0.076,2.035-0.08c0.349-0.002,0.717,0,1.105,0.003c0.385,0.003,0.79,0.009,1.214,0.015
		c0.421,0.006,0.861,0.012,1.32,0.017c0.456,0.005,0.931,0.009,1.424,0.011c0.819,0.003,1.452,0.263,1.944,0.663
		c0.49,0.399,0.844,0.94,1.1,1.508c0.257,0.57,0.418,1.171,0.518,1.683c0.101,0.515,0.141,0.941,0.155,1.153l0.003,0.039
		l0.002,0.034l0.001,0.028l0.001,0.021C157.023,58.547,157.026,59.326,156.99,60.091z"/>
	<g>
		<path fill="#4FBA6F" d="M35.379,101.75v-3.09c0-0.36,0.16-0.685,0.48-0.976c0.32-0.289,0.76-0.435,1.32-0.435
			c0.52,0,0.935,0.146,1.245,0.435c0.31,0.291,0.465,0.615,0.465,0.976v3.09h2.22c0.34,0,0.64,0.125,0.9,0.375
			c0.259,0.25,0.39,0.575,0.39,0.975c0,0.44-0.13,0.785-0.39,1.035c-0.26,0.251-0.561,0.375-0.9,0.375h-2.22v7.26
			c0,0.841,0.109,1.41,0.33,1.711c0.22,0.3,0.54,0.449,0.96,0.449c0.4,0,0.74-0.034,1.02-0.104c0.28-0.07,0.6-0.105,0.96-0.105
			c0.46,0,0.795,0.125,1.005,0.375c0.21,0.251,0.315,0.596,0.315,1.035c0,0.38-0.1,0.69-0.3,0.93c-0.2,0.24-0.465,0.436-0.795,0.585
			c-0.33,0.15-0.711,0.256-1.14,0.315c-0.43,0.06-0.885,0.09-1.365,0.09c-1.56,0-2.7-0.405-3.42-1.215
			c-0.72-0.81-1.08-2.205-1.08-4.185v-7.141h-1.2c-0.34,0-0.641-0.124-0.9-0.375c-0.26-0.25-0.39-0.595-0.39-1.035
			c0-0.399,0.13-0.725,0.39-0.975c0.259-0.25,0.56-0.375,0.9-0.375H35.379z"/>
		<path fill="#4FBA6F" d="M60.518,115.64c0,0.36-0.17,0.686-0.51,0.976c-0.34,0.289-0.77,0.435-1.29,0.435
			c-0.521,0-0.941-0.146-1.26-0.435c-0.32-0.29-0.48-0.615-0.48-0.976V107.9c0-0.96-0.266-1.735-0.795-2.325
			c-0.53-0.59-1.305-0.885-2.325-0.885c-0.88,0-1.615,0.245-2.205,0.734c-0.59,0.49-0.905,1.266-0.945,2.325v7.89
			c0,0.36-0.155,0.686-0.465,0.976c-0.31,0.289-0.725,0.435-1.245,0.435c-0.54,0-0.975-0.146-1.305-0.435
			c-0.33-0.29-0.495-0.615-0.495-0.976V97.76c0-0.359,0.165-0.685,0.495-0.975c0.33-0.29,0.765-0.436,1.305-0.436
			c0.52,0,0.935,0.146,1.245,0.436c0.31,0.29,0.465,0.615,0.465,0.975v5.61l0.18,0.03c0.36-0.58,0.85-1.055,1.47-1.426
			c0.62-0.369,1.37-0.555,2.25-0.555c1.1,0,2.025,0.176,2.775,0.525c0.75,0.35,1.354,0.82,1.815,1.41
			c0.46,0.59,0.795,1.274,1.005,2.055c0.21,0.78,0.315,1.6,0.315,2.46V115.64z"/>
		<path fill="#4FBA6F" d="M77.229,107.54c0,0.94-0.18,1.601-0.54,1.979c-0.36,0.381-0.96,0.57-1.8,0.57h-7.11v0.78
			c0,0.96,0.295,1.73,0.885,2.31c0.59,0.581,1.425,0.87,2.505,0.87c0.54,0,1.035-0.034,1.485-0.104
			c0.45-0.07,0.805-0.165,1.065-0.285c0.28-0.14,0.55-0.28,0.81-0.42c0.26-0.14,0.5-0.21,0.72-0.21c0.4,0,0.709,0.12,0.93,0.359
			c0.22,0.24,0.34,0.551,0.36,0.931c0,0.32-0.14,0.64-0.42,0.96c-0.28,0.32-0.66,0.61-1.14,0.87c-0.48,0.26-1.045,0.475-1.695,0.645
			c-0.65,0.17-1.346,0.255-2.085,0.255c-1.02,0-1.95-0.16-2.79-0.479c-0.84-0.32-1.565-0.75-2.175-1.29
			c-0.61-0.54-1.085-1.175-1.425-1.905c-0.34-0.729-0.51-1.505-0.51-2.325v-3.18c0-0.88,0.165-1.71,0.495-2.49
			c0.33-0.78,0.785-1.46,1.365-2.04c0.58-0.58,1.269-1.039,2.07-1.38c0.8-0.34,1.68-0.51,2.64-0.51c1.14,0,2.11,0.185,2.91,0.555
			c0.8,0.37,1.455,0.851,1.965,1.44c0.51,0.59,0.885,1.245,1.125,1.965C77.108,106.13,77.229,106.84,77.229,107.54z M70.838,104.36
			c-0.9,0-1.615,0.284-2.145,0.854c-0.53,0.57-0.835,1.325-0.915,2.266h6.12v-0.45c0-0.82-0.285-1.471-0.855-1.95
			C72.474,104.6,71.738,104.36,70.838,104.36z"/>
		<path fill="#4FBA6F" d="M94.268,101.42c0.82,0,1.545,0.165,2.175,0.495c0.63,0.33,1.145,0.726,1.545,1.185l0.21-0.029v-5.49
			c0-0.36,0.154-0.685,0.465-0.975c0.31-0.29,0.715-0.436,1.215-0.436c0.56,0,1,0.146,1.32,0.436c0.319,0.29,0.48,0.614,0.48,0.975
			v12.93c0,0.94-0.14,1.81-0.42,2.61c-0.28,0.8-0.695,1.49-1.245,2.07c-0.55,0.58-1.24,1.034-2.07,1.364
			c-0.83,0.33-1.795,0.495-2.895,0.495c-1.18,0-2.205-0.18-3.075-0.54c-0.87-0.359-1.595-0.85-2.175-1.47
			c-0.58-0.62-1.015-1.345-1.305-2.175c-0.29-0.83-0.435-1.715-0.435-2.655v-1.95c0-0.94,0.12-1.824,0.36-2.654
			c0.24-0.83,0.61-1.556,1.11-2.176c0.5-0.619,1.14-1.109,1.92-1.47C92.228,101.6,93.168,101.42,94.268,101.42z M95.048,113.78
			c0.88,0,1.625-0.25,2.235-0.75c0.61-0.5,0.915-1.3,0.915-2.4v-2.88c-0.041-1.06-0.365-1.835-0.975-2.325
			c-0.61-0.489-1.335-0.734-2.175-0.734c-1.04,0-1.875,0.31-2.505,0.93c-0.63,0.62-0.945,1.46-0.945,2.52v2.19
			c0,1.061,0.315,1.9,0.945,2.52C93.173,113.47,94.008,113.78,95.048,113.78z"/>
		<path fill="#4FBA6F" d="M117.277,117.2c-0.5,0-0.905-0.146-1.215-0.436c-0.311-0.289-0.465-0.614-0.465-0.975v-0.48l-0.27-0.09
			c-0.18,0.261-0.375,0.5-0.585,0.721c-0.21,0.22-0.465,0.415-0.765,0.585c-0.3,0.17-0.655,0.3-1.065,0.39
			c-0.41,0.09-0.915,0.135-1.515,0.135c-0.96,0-1.8-0.175-2.52-0.524c-0.72-0.35-1.31-0.806-1.77-1.365
			c-0.46-0.56-0.805-1.2-1.035-1.92c-0.23-0.721-0.345-1.46-0.345-2.221v-2.64c0-0.84,0.15-1.67,0.45-2.49
			c0.3-0.819,0.74-1.56,1.32-2.22c0.579-0.66,1.309-1.194,2.19-1.604c0.88-0.41,1.91-0.615,3.09-0.615c1.1,0,2.05,0.149,2.85,0.45
			c0.8,0.3,1.455,0.715,1.965,1.244c0.51,0.53,0.885,1.155,1.125,1.875c0.24,0.721,0.36,1.511,0.36,2.37v8.4
			c0,0.36-0.161,0.686-0.48,0.975C118.277,117.055,117.837,117.2,117.277,117.2z M115.598,107.45c0-1-0.245-1.705-0.735-2.115
			c-0.49-0.409-1.185-0.615-2.085-0.615c-0.52,0-0.99,0.096-1.41,0.285c-0.42,0.19-0.78,0.45-1.08,0.78
			c-0.3,0.33-0.536,0.705-0.705,1.125c-0.17,0.42-0.255,0.87-0.255,1.35v2.88c0,0.721,0.27,1.341,0.81,1.86
			c0.539,0.521,1.209,0.78,2.01,0.78c0.439,0,0.865-0.075,1.275-0.226c0.41-0.149,0.775-0.369,1.095-0.66
			c0.319-0.289,0.58-0.654,0.78-1.095c0.2-0.439,0.3-0.949,0.3-1.53V107.45z"/>
		<path fill="#4FBA6F" d="M123.697,97.479c0-0.357,0.165-0.68,0.495-0.967c0.33-0.288,0.765-0.432,1.305-0.432
			c0.52,0,0.935,0.144,1.245,0.432c0.31,0.287,0.465,0.609,0.465,0.967v0.713c0,0.357-0.155,0.68-0.465,0.968
			c-0.31,0.287-0.725,0.431-1.245,0.431c-0.54,0-0.975-0.144-1.305-0.431c-0.33-0.288-0.495-0.61-0.495-0.968V97.479z
			 M123.697,102.86c0-0.36,0.165-0.686,0.495-0.976c0.33-0.289,0.765-0.435,1.305-0.435c0.52,0,0.935,0.146,1.245,0.435
			c0.31,0.29,0.465,0.615,0.465,0.976v12.779c0,0.36-0.155,0.686-0.465,0.976c-0.31,0.289-0.725,0.435-1.245,0.435
			c-0.54,0-0.975-0.146-1.305-0.435c-0.33-0.29-0.495-0.615-0.495-0.976V102.86z"/>
		<path fill="#4FBA6F" d="M132.007,97.76c0-0.359,0.165-0.685,0.494-0.975c0.33-0.29,0.766-0.436,1.306-0.436
			c0.52,0,0.935,0.146,1.245,0.436c0.309,0.29,0.465,0.615,0.465,0.975v17.88c0,0.36-0.155,0.686-0.465,0.976
			c-0.311,0.289-0.726,0.435-1.245,0.435c-0.54,0-0.975-0.146-1.306-0.435c-0.329-0.29-0.494-0.615-0.494-0.976V97.76z"/>
		<path fill="#4FBA6F" d="M149.962,101.84c0.33-0.279,0.765-0.42,1.305-0.42c0.52,0,0.94,0.146,1.261,0.436
			c0.319,0.29,0.48,0.614,0.48,0.975v14.97c-0.02,0.96-0.195,1.795-0.524,2.505c-0.33,0.71-0.78,1.29-1.351,1.74
			c-0.57,0.45-1.24,0.785-2.01,1.005c-0.771,0.22-1.585,0.33-2.445,0.33c-0.98,0-1.76-0.04-2.34-0.12
			c-0.58-0.08-1.01-0.17-1.29-0.27c-0.66-0.42-0.99-0.931-0.99-1.53c0-0.44,0.14-0.79,0.42-1.05c0.28-0.261,0.7-0.391,1.261-0.391
			c0.22,0,0.59,0.04,1.109,0.12c0.521,0.08,1.13,0.12,1.83,0.12c0.94,0,1.645-0.215,2.115-0.645c0.47-0.431,0.705-1.035,0.705-1.815
			v-2.28l-0.15-0.06c-0.439,0.521-0.944,0.91-1.515,1.17c-0.57,0.26-1.285,0.39-2.146,0.39c-1.1,0-2.01-0.154-2.729-0.465
			c-0.72-0.31-1.29-0.744-1.71-1.305c-0.42-0.56-0.716-1.225-0.885-1.995c-0.171-0.77-0.255-1.614-0.255-2.535v-7.89
			c0-0.36,0.169-0.685,0.51-0.975c0.34-0.29,0.77-0.436,1.29-0.436c0.52,0,0.939,0.146,1.26,0.436
			c0.319,0.29,0.481,0.614,0.481,0.975v8.01c0,0.94,0.21,1.66,0.63,2.16c0.42,0.5,1.15,0.75,2.189,0.75
			c0.72,0,1.355-0.175,1.905-0.525c0.55-0.35,0.925-0.895,1.125-1.635v-8.88C149.477,102.41,149.632,102.12,149.962,101.84z"/>
		<path fill="#4FBA6F" d="M162.426,119.57c0.341,0,0.649,0.039,0.931,0.12c0.279,0.079,0.619,0.119,1.02,0.119
			c0.7,0,1.189-0.165,1.47-0.494c0.28-0.33,0.42-0.886,0.42-1.665v-14.79c0-0.36,0.155-0.686,0.466-0.976
			c0.31-0.289,0.725-0.435,1.244-0.435c0.561,0,1,0.146,1.32,0.435c0.319,0.29,0.48,0.615,0.48,0.976v14.67
			c0,1.98-0.461,3.375-1.381,4.185c-0.92,0.811-2.26,1.215-4.02,1.215c-0.42,0-0.83-0.029-1.23-0.09
			c-0.399-0.06-0.754-0.165-1.064-0.314c-0.31-0.15-0.555-0.346-0.735-0.585c-0.18-0.24-0.27-0.551-0.27-0.931
			c0-0.44,0.11-0.79,0.33-1.05C161.626,119.7,161.966,119.57,162.426,119.57z M166.236,97.479c0-0.357,0.159-0.68,0.48-0.967
			c0.32-0.288,0.76-0.432,1.32-0.432c0.52,0,0.935,0.144,1.245,0.432c0.31,0.287,0.465,0.609,0.465,0.967v0.713
			c0,0.357-0.155,0.68-0.465,0.968c-0.311,0.287-0.726,0.431-1.245,0.431c-0.561,0-1-0.144-1.32-0.431
			c-0.32-0.288-0.48-0.61-0.48-0.968V97.479z"/>
		<path fill="#4FBA6F" d="M180.936,117.05c-1.1,0-2.065-0.165-2.895-0.495c-0.83-0.33-1.525-0.789-2.085-1.38
			c-0.561-0.59-0.98-1.29-1.261-2.1c-0.28-0.811-0.42-1.685-0.42-2.625v-7.561c0-0.359,0.165-0.685,0.495-0.975
			c0.33-0.29,0.766-0.435,1.306-0.435c0.52,0,0.934,0.145,1.244,0.435c0.311,0.29,0.466,0.615,0.466,0.975v7.681
			c0,1.1,0.3,1.91,0.899,2.43c0.601,0.521,1.351,0.78,2.25,0.78c0.9,0,1.646-0.26,2.235-0.78c0.59-0.52,0.885-1.33,0.885-2.43
			v-7.681c0-0.359,0.16-0.685,0.48-0.975c0.319-0.29,0.739-0.435,1.26-0.435c0.52,0,0.949,0.145,1.29,0.435
			c0.34,0.29,0.51,0.615,0.51,0.975v7.561c0,0.94-0.14,1.814-0.42,2.625c-0.28,0.81-0.7,1.51-1.26,2.1
			c-0.561,0.591-1.256,1.05-2.085,1.38C183.001,116.885,182.035,117.05,180.936,117.05z"/>
		<path fill="#4FBA6F" d="M192.097,97.479c0-0.357,0.165-0.68,0.494-0.967c0.33-0.288,0.766-0.432,1.306-0.432
			c0.52,0,0.935,0.144,1.245,0.432c0.31,0.287,0.465,0.609,0.465,0.967v0.713c0,0.357-0.155,0.68-0.465,0.968
			c-0.311,0.287-0.726,0.431-1.245,0.431c-0.54,0-0.976-0.144-1.306-0.431c-0.329-0.288-0.494-0.61-0.494-0.968V97.479z
			 M192.097,102.86c0-0.36,0.165-0.686,0.494-0.976c0.33-0.289,0.766-0.435,1.306-0.435c0.52,0,0.935,0.146,1.245,0.435
			c0.31,0.29,0.465,0.615,0.465,0.976v12.779c0,0.36-0.155,0.686-0.465,0.976c-0.311,0.289-0.726,0.435-1.245,0.435
			c-0.54,0-0.976-0.146-1.306-0.435c-0.329-0.29-0.494-0.615-0.494-0.976V102.86z"/>
		<path fill="#4FBA6F" d="M199.656,107.99c0-0.9,0.124-1.745,0.375-2.535c0.249-0.79,0.645-1.485,1.185-2.085
			c0.54-0.601,1.23-1.069,2.07-1.41c0.84-0.34,1.85-0.51,3.029-0.51c1.02,0,1.9,0.135,2.641,0.405c0.739,0.27,1.34,0.635,1.8,1.095
			c0.26,0.26,0.399,0.585,0.42,0.975c0.02,0.391-0.066,0.735-0.255,1.035c-0.19,0.3-0.48,0.51-0.87,0.63
			c-0.39,0.12-0.865,0.04-1.425-0.24c-0.3-0.159-0.63-0.305-0.99-0.435c-0.36-0.13-0.8-0.195-1.32-0.195
			c-1.04,0-1.819,0.311-2.34,0.931c-0.521,0.62-0.779,1.46-0.779,2.52v2.16c0,1.061,0.259,1.9,0.779,2.52
			c0.52,0.62,1.3,0.931,2.34,0.931c0.52,0,0.99-0.055,1.41-0.165c0.42-0.11,0.75-0.235,0.99-0.375
			c0.42-0.22,0.814-0.295,1.185-0.226c0.37,0.07,0.665,0.23,0.886,0.48c0.22,0.25,0.35,0.55,0.39,0.899
			c0.04,0.351-0.07,0.705-0.33,1.065c-0.38,0.521-0.985,0.915-1.814,1.185c-0.83,0.271-1.735,0.405-2.716,0.405
			c-1.18,0-2.189-0.17-3.029-0.51c-0.84-0.34-1.53-0.81-2.07-1.41c-0.54-0.6-0.936-1.295-1.185-2.085
			c-0.251-0.79-0.375-1.635-0.375-2.535V107.99z"/>
		<path fill="#4FBA6F" d="M226.625,107.54c0,0.94-0.18,1.601-0.539,1.979c-0.36,0.381-0.961,0.57-1.801,0.57h-7.109v0.78
			c0,0.96,0.295,1.73,0.885,2.31c0.59,0.581,1.425,0.87,2.505,0.87c0.54,0,1.035-0.034,1.485-0.104
			c0.449-0.07,0.805-0.165,1.064-0.285c0.28-0.14,0.55-0.28,0.811-0.42c0.26-0.14,0.499-0.21,0.72-0.21
			c0.399,0,0.71,0.12,0.93,0.359c0.22,0.24,0.34,0.551,0.36,0.931c0,0.32-0.141,0.64-0.42,0.96c-0.28,0.32-0.66,0.61-1.141,0.87
			c-0.48,0.26-1.045,0.475-1.694,0.645c-0.65,0.17-1.346,0.255-2.085,0.255c-1.021,0-1.95-0.16-2.79-0.479
			c-0.84-0.32-1.565-0.75-2.175-1.29c-0.61-0.54-1.086-1.175-1.426-1.905c-0.34-0.729-0.51-1.505-0.51-2.325v-3.18
			c0-0.88,0.165-1.71,0.495-2.49c0.33-0.78,0.785-1.46,1.365-2.04c0.58-0.58,1.27-1.039,2.069-1.38c0.8-0.34,1.681-0.51,2.641-0.51
			c1.14,0,2.109,0.185,2.91,0.555c0.8,0.37,1.455,0.851,1.965,1.44c0.51,0.59,0.885,1.245,1.125,1.965
			C226.506,106.13,226.625,106.84,226.625,107.54z M220.235,104.36c-0.899,0-1.615,0.284-2.144,0.854
			c-0.53,0.57-0.836,1.325-0.915,2.266h6.12v-0.45c0-0.82-0.285-1.471-0.855-1.95C221.87,104.6,221.136,104.36,220.235,104.36z"/>
	</g>
</g>
<g display="none">
</g>
</svg>
